<svg id="visual" viewBox="0 0 3840 2160" width="3840" height="2160" xmlns="http://www.w3.org/2000/svg" xmlns:xlink="http://www.w3.org/1999/xlink" version="1.1"><rect x="0" y="0" width="3840" height="2160" fill="#001220"></rect><path d="M0 1307L91.5 1352.2C183 1397.3 366 1487.7 548.8 1486.2C731.7 1484.7 914.3 1391.3 1097.2 1387.8C1280 1384.3 1463 1470.7 1645.8 1495.3C1828.7 1520 2011.3 1483 2194.2 1492.2C2377 1501.3 2560 1556.7 2742.8 1550.7C2925.7 1544.7 3108.3 1477.3 3291.2 1464.5C3474 1451.7 3657 1493.3 3748.5 1514.2L3840 1535L3840 2161L3748.5 2161C3657 2161 3474 2161 3291.2 2161C3108.3 2161 2925.7 2161 2742.8 2161C2560 2161 2377 2161 2194.2 2161C2011.3 2161 1828.7 2161 1645.8 2161C1463 2161 1280 2161 1097.2 2161C914.3 2161 731.7 2161 548.8 2161C366 2161 183 2161 91.5 2161L0 2161Z" fill="#888277"></path><path d="M0 1699L91.5 1655.8C183 1612.7 366 1526.3 548.8 1527.8C731.7 1529.3 914.3 1618.7 1097.2 1632.7C1280 1646.7 1463 1585.3 1645.8 1566.8C1828.7 1548.3 2011.3 1572.7 2194.2 1578.5C2377 1584.3 2560 1571.7 2742.8 1552.7C2925.7 1533.7 3108.3 1508.3 3291.2 1505.3C3474 1502.3 3657 1521.7 3748.5 1531.3L3840 1541L3840 2161L3748.5 2161C3657 2161 3474 2161 3291.2 2161C3108.3 2161 2925.7 2161 2742.8 2161C2560 2161 2377 2161 2194.2 2161C2011.3 2161 1828.7 2161 1645.8 2161C1463 2161 1280 2161 1097.2 2161C914.3 2161 731.7 2161 548.8 2161C366 2161 183 2161 91.5 2161L0 2161Z" fill="#7d706c"></path><path d="M0 1695L91.5 1680.7C183 1666.3 366 1637.7 548.8 1631.5C731.7 1625.3 914.3 1641.7 1097.2 1652.5C1280 1663.3 1463 1668.7 1645.8 1679.7C1828.7 1690.7 2011.3 1707.3 2194.2 1699.3C2377 1691.3 2560 1658.7 2742.8 1678C2925.7 1697.3 3108.3 1768.7 3291.2 1766.3C3474 1764 3657 1688 3748.5 1650L3840 1612L3840 2161L3748.5 2161C3657 2161 3474 2161 3291.2 2161C3108.3 2161 2925.7 2161 2742.8 2161C2560 2161 2377 2161 2194.2 2161C2011.3 2161 1828.7 2161 1645.8 2161C1463 2161 1280 2161 1097.2 2161C914.3 2161 731.7 2161 548.8 2161C366 2161 183 2161 91.5 2161L0 2161Z" fill="#6c6164"></path><path d="M0 1894L91.5 1895.3C183 1896.7 366 1899.3 548.8 1887.5C731.7 1875.7 914.3 1849.3 1097.2 1850.8C1280 1852.3 1463 1881.7 1645.8 1877.3C1828.7 1873 2011.3 1835 2194.2 1838.3C2377 1841.7 2560 1886.3 2742.8 1907.3C2925.7 1928.3 3108.3 1925.7 3291.2 1902.2C3474 1878.7 3657 1834.3 3748.5 1812.2L3840 1790L3840 2161L3748.5 2161C3657 2161 3474 2161 3291.2 2161C3108.3 2161 2925.7 2161 2742.8 2161C2560 2161 2377 2161 2194.2 2161C2011.3 2161 1828.7 2161 1645.8 2161C1463 2161 1280 2161 1097.2 2161C914.3 2161 731.7 2161 548.8 2161C366 2161 183 2161 91.5 2161L0 2161Z" fill="#585459"></path><path d="M0 1941L91.5 1954.3C183 1967.7 366 1994.3 548.8 2012.3C731.7 2030.3 914.3 2039.7 1097.2 2047.3C1280 2055 1463 2061 1645.8 2062.3C1828.7 2063.7 2011.3 2060.3 2194.2 2052.8C2377 2045.3 2560 2033.7 2742.8 2020.3C2925.7 2007 3108.3 1992 3291.2 1973.5C3474 1955 3657 1933 3748.5 1922L3840 1911L3840 2161L3748.5 2161C3657 2161 3474 2161 3291.2 2161C3108.3 2161 2925.7 2161 2742.8 2161C2560 2161 2377 2161 2194.2 2161C2011.3 2161 1828.7 2161 1645.8 2161C1463 2161 1280 2161 1097.2 2161C914.3 2161 731.7 2161 548.8 2161C366 2161 183 2161 91.5 2161L0 2161Z" fill="#45474b"></path></svg>